<?xml version="1.0" standalone="no"?><!DOCTYPE svg PUBLIC "-//W3C//DTD SVG 1.1//EN" "http://www.w3.org/Graphics/SVG/1.1/DTD/svg11.dtd"><svg t="1740382864009" class="icon" viewBox="0 0 1024 1024" version="1.1" xmlns="http://www.w3.org/2000/svg" p-id="7567" xmlns:xlink="http://www.w3.org/1999/xlink" width="200" height="200"><path d="M524.0832 245.4528c-55.808 0-111.616-0.2048-167.5264 0.1024-11.1616 0-17.6128-1.4336-18.944-15.36-9.3184-98.4064 60.0064-189.44 158.3104-206.6432C584.4992 7.9872 678.912 70.7584 703.1808 161.5872c5.7344 21.4016 6.5536 43.2128 6.3488 65.3312-0.1024 15.0528-5.8368 19.1488-20.2752 18.944-55.0912-0.7168-110.1824-0.3072-165.1712-0.3072z" fill="#41BDF5" p-id="7568"></path><path d="M891.2896 646.2464c16.5888 0.9216 33.28 0.3072 49.8688 0.2048 35.5328-0.2048 58.1632-19.3536 58.6752-49.4592 0.4096-30.8224-22.8352-50.5856-59.6992-50.688-28.672 0-57.4464-0.4096-86.1184 0.2048-12.0832 0.3072-19.456-2.7648-16.9984-16.384 4.3008-23.9616 3.6864-48.3328 5.0176-72.4992 0.6144-11.0592 5.632-19.456 15.2576-26.2144 31.5392-22.1184 62.3616-45.2608 93.5936-67.8912 28.16-20.48 34.304-48.5376 16.1792-74.752-16.0768-23.2448-44.6464-26.9312-71.9872-8.192-22.4256 15.36-44.544 31.232-66.048 47.9232-12.6976 9.8304-25.9072 13.1072-41.7792 13.0048-158.72-0.512-317.44-2.048-476.16 0.7168-53.76 0.9216-101.1712-5.5296-140.288-45.4656-8.8064-9.0112-20.8896-14.848-31.8464-21.6064-10.752-6.656-22.3232-8.6016-34.816-5.5296-21.7088 5.3248-33.6896 20.48-37.6832 41.0624-4.096 21.4016 5.5296 38.2976 22.8352 50.8928 31.744 23.1424 63.3856 46.4896 95.5392 69.12 10.24 7.168 15.5648 16.1792 16.1792 28.16 1.2288 23.4496 0.3072 47.0016 4.8128 70.2464 2.3552 12.3904-2.56 17.7152-15.872 17.408-30.9248-0.8192-61.952-0.512-92.9792-0.1024-31.3344 0.4096-53.6576 21.2992-53.8624 49.664-0.2048 28.3648 22.1184 49.8688 53.1456 50.3808 20.3776 0.4096 40.8576 0.3072 61.2352 0 10.8544-0.2048 13.4144 3.4816 8.4992 13.5168-7.0656 14.2336-13.1072 28.9792-19.968 43.4176-24.1664 50.5856-48.7424 101.0688-72.4992 151.8592-14.2336 30.6176-8.2944 55.3984 15.36 69.8368 30.0032 18.432 59.5968 6.656 76.3904-29.5936 19.7632-42.5984 40.0384-84.8896 60.928-128.9216 11.1616 10.6496 20.6848 19.2512 29.5936 28.3648 42.9056 43.8272 87.04 86.1184 136.2944 123.0848 85.9136 64.512 172.6464 64.7168 258.048 0.512 40.6528-30.5152 78.6432-63.8976 114.0736-100.352 16.7936-17.3056 33.6896-34.5088 52.0192-53.3504 6.2464 13.4144 11.1616 24.3712 16.384 35.2256 16.9984 35.5328 33.1776 71.4752 51.5072 106.2912 13.6192 25.8048 39.0144 33.5872 63.1808 22.3232 26.4192-12.288 36.0448-35.7376 25.9072-64.2048-3.072-8.4992-7.168-16.6912-11.0592-24.8832-27.5456-58.2656-54.6816-116.6336-82.944-174.4896-7.7824-15.872-3.9936-19.6608 12.1856-18.7392zM742.1952 455.9872c-5.7344 80.0768-10.1376 160.1536-15.2576 240.2304-0.6144 8.9088-1.536 18.5344-8.2944 25.4976C675.1232 766.976 630.784 811.1104 573.44 848.9984v-186.368c0-12.1856 0.3072-24.2688 0-36.4544-0.9216-31.5392-22.8352-53.1456-53.248-52.6336-29.184 0.512-50.688 21.9136-50.8928 52.6336-0.512 66.048-0.1024 132.096-0.2048 198.144 0 6.656-0.512 13.312-0.9216 22.6304-30.5152-16.5888-53.3504-39.5264-78.2336-59.5968-0.6144-0.512-1.1264-1.024-1.6384-1.536-69.7344-65.3312-70.144-65.3312-77.312-159.8464-4.1984-55.808-6.4512-111.8208-10.3424-167.7312-0.8192-11.8784 0.1024-17.2032 14.4384-17.1008 137.5232 0.512 275.0464 0.4096 412.5696 0.2048 10.8544 0 15.5648 1.2288 14.6432 14.7456z" fill="#9FB4E8" p-id="7569"></path></svg>